<?xml version="1.0" encoding="UTF-8"?>
<svg xmlns="http://www.w3.org/2000/svg" xmlns:xlink="http://www.w3.org/1999/xlink" width="224pt" height="256pt" viewBox="0 0 224 256" version="1.1">
<g id="surface1">
<path style=" stroke:none;fill-rule:nonzero;fill:rgb(0%,0%,0%);fill-opacity:1;" d="M 192 16 L 32 16 C 14.324219 16 0 30.324219 0 48 L 0 208 C 0 225.671875 14.324219 240 32 240 L 192 240 C 209.675781 240 224 225.671875 224 208 L 224 48 C 224 30.324219 209.648438 16 192 16 Z M 156.148438 136.800781 L 100.148438 188.800781 C 97.898438 190.898438 94.949219 192 92 192 C 90.375 192 88.75 191.671875 87.203125 191 C 82.851563 189.101563 80 184.75 80 180 L 80 76 C 80 71.234375 82.828125 66.90625 87.203125 65 C 91.578125 63.125 96.675781 63.96875 100.175781 67.203125 L 156.175781 119.203125 C 158.601563 121.050781 160 124.648438 160 128 C 160 131.351563 158.601563 134.5 156.148438 136.800781 Z M 156.148438 136.800781 "/>
</g>
</svg>
